<?xml version="1.0" encoding="utf-8"?>
<!-- Generator: Adobe Illustrator 26.2.1, SVG Export Plug-In . SVG Version: 6.00 Build 0)  -->
<svg version="1.1" id="レイヤー_1" xmlns="http://www.w3.org/2000/svg" xmlns:xlink="http://www.w3.org/1999/xlink" x="0px"
	 y="0px" viewBox="0 0 232.53 132.94" style="enable-background:new 0 0 232.53 132.94;" xml:space="preserve">
<g>
	<path d="M16.08,49.58h6.48c1.16,1.88,1.64-1.02,2.66,4.3c-0.66,1.32-1.31,2.64-1.97,3.96l1.59,3.19l-1.59,2.67l0.95,3.4l-0.95,3.52
		l2.55,2.88l9.99,1.81v6.02H16.08V49.58z"/>
	<path d="M40.51,60.79c0-1.43,1.13-2.43,2.69-2.43c1.56,0,2.69,1.01,2.69,2.43c0,1.42-1.13,2.43-2.69,2.43
		C41.65,63.23,40.51,62.21,40.51,60.79z M40.87,65.52h4.65v15.71h-4.65V65.52z"/>
	<path d="M51.11,65.52h4.68l2.04,7.41c0.4,1.56,0.82,3.18,1.22,4.83h0.13c0.4-1.64,0.82-3.27,1.22-4.83l2.04-7.41h4.46l-5.12,15.71
		H56.4L51.11,65.52z"/>
	<path d="M72.14,60.79c0-1.43,1.13-2.43,2.69-2.43s2.69,1.01,2.69,2.43c0,1.42-1.13,2.43-2.69,2.43S72.14,62.21,72.14,60.79z
		 M72.5,65.52h4.65v15.71H72.5V65.52z"/>
	<path d="M84.41,65.52h3.8l0.34,1.99h0.12c1.32-1.27,2.91-2.37,5.05-2.37c3.42,0,4.87,2.41,4.87,6.34v9.75h-4.65v-9.15
		c0-2.26-0.61-2.97-1.95-2.97c-1.17,0-1.88,0.54-2.91,1.53v10.6h-4.65V65.52z"/>
	<path d="M104.72,83.93c0-1.3,0.78-2.36,2.23-3.16v-0.13c-0.81-0.55-1.43-1.37-1.43-2.67c0-1.13,0.75-2.24,1.75-2.94V74.9
		c-1.11-0.77-2.11-2.24-2.11-4.07c0-3.77,3.11-5.68,6.5-5.68c0.88,0,1.73,0.14,2.43,0.38h5.74v3.39h-2.52
		c0.29,0.47,0.53,1.25,0.53,2.07c0,3.61-2.75,5.28-6.18,5.28c-0.57,0-1.22-0.1-1.92-0.31c-0.38,0.34-0.55,0.61-0.55,1.17
		c0,0.77,0.63,1.15,2.35,1.15h2.55c3.85,0,6,1.18,6,3.99c0,3.26-3.4,5.64-8.79,5.64C107.63,87.91,104.72,86.72,104.72,83.93z
		 M115.62,83.06c0-0.99-0.85-1.22-2.39-1.22h-1.63c-1.08,0-1.69-0.06-2.2-0.2c-0.58,0.49-0.85,0.98-0.85,1.54
		c0,1.19,1.38,1.8,3.48,1.8C114.12,84.99,115.62,84.15,115.62,83.06z M113.79,70.83c0-1.67-0.91-2.55-2.14-2.55
		c-1.24,0-2.14,0.87-2.14,2.55c0,1.72,0.92,2.62,2.14,2.62C112.87,73.45,113.79,72.55,113.79,70.83z"/>
	<path d="M134.53,76.88c0-2.21,1.18-3.75,3.81-4.72c0.92-0.34,2.02-0.61,3.31-0.82c0.54-0.09,1.11-0.16,1.72-0.22
		c-0.09-1.37-0.78-2.27-2.48-2.27c-1.32,0-2.63,0.55-4.16,1.42l-1.65-3.06c0.96-0.59,1.99-1.09,3.06-1.45
		c1.15-0.39,2.37-0.61,3.64-0.61c1.43,0,2.63,0.29,3.58,0.88c1.73,1.07,2.66,3.13,2.66,6.23v8.98h-3.8l-0.34-1.61h-0.12
		c-1.32,1.16-2.8,1.99-4.57,1.99C136.35,81.61,134.53,79.52,134.53,76.88z M143.35,76.15l0.02-1.35c0-0.44-0.31-0.83-0.75-0.89
		c-1.22-0.17-2.44-0.98-3.01-0.68c-0.89,0.47,0.83,2.7-0.62,3.27c-0.94,0.37-0.9,2.96,0.2,2.96c0.65,0,1.58-1.94,2.08-2.29
		c0.19-0.13,0.81-0.14,1.33-0.2C143.02,76.94,143.34,76.58,143.35,76.15z"/>
	<path d="M155.1,76.35v-17.3h4.65v17.49c0,1,0.46,1.31,0.84,1.31c0.18,0,0.31,0,0.57-0.06l0.56,3.43c-0.51,0.22-1.28,0.39-2.34,0.39
		C156.19,81.61,155.1,79.53,155.1,76.35z"/>
	<path d="M166.41,73.38c0-5.22,3.68-8.24,7.65-8.24c3.97,0,7.65,3.02,7.65,8.24c0,5.21-3.68,8.23-7.65,8.23
		C170.09,81.61,166.41,78.59,166.41,73.38z M176.94,73.38c0-2.72-0.96-4.48-2.88-4.48c-1.92,0-2.88,1.76-2.88,4.48
		c0,2.72,0.96,4.47,2.88,4.47C175.99,77.86,176.94,76.1,176.94,73.38z"/>
	<path d="M188.06,65.52h3.8l0.34,1.99h0.12c1.32-1.27,2.91-2.37,5.05-2.37c3.42,0,4.87,2.41,4.87,6.34v9.75h-4.65v-9.15
		c0-2.26-0.61-2.97-1.95-2.97c-1.17,0-1.88,0.54-2.91,1.53v10.6h-4.65V65.52z"/>
	<path d="M208.42,73.38c0-5.1,3.64-8.24,7.41-8.24c4.47,0,6.69,3.25,6.69,7.54c0,0.84-0.1,1.68-0.19,2.06h-9.4
		c0.42,2.28,1.98,3.32,4.07,3.32c1.19,0,2.26-0.36,3.4-1.03l1.54,2.81c-1.61,1.11-3.71,1.77-5.57,1.77
		C211.89,81.61,208.42,78.58,208.42,73.38z M218.55,71.66c0-1.73-0.75-2.97-2.61-2.97c-1.47,0-2.74,0.99-3.06,2.97H218.55z"/>
</g>
</svg>
